<?xml version="1.0" encoding="UTF-8" standalone="no"?>
<!-- Created with Inkscape (http://www.inkscape.org/) -->

<svg
   xmlns:dc="http://purl.org/dc/elements/1.1/"
   xmlns:cc="http://creativecommons.org/ns#"
   xmlns:rdf="http://www.w3.org/1999/02/22-rdf-syntax-ns#"
   xmlns:svg="http://www.w3.org/2000/svg"
   xmlns="http://www.w3.org/2000/svg"
   xmlns:sodipodi="http://sodipodi.sourceforge.net/DTD/sodipodi-0.dtd"
   xmlns:inkscape="http://www.inkscape.org/namespaces/inkscape"
   width="210mm"
   height="297mm"
   viewBox="0 0 210 297"
   version="1.1"
   id="svg8"
   inkscape:version="1.0 (4035a4fb49, 2020-05-01)"
   sodipodi:docname="drawing.svg">
  <defs
     id="defs2" />
  <sodipodi:namedview
     id="base"
     pagecolor="#ffffff"
     bordercolor="#666666"
     borderopacity="1.0"
     inkscape:pageopacity="0.0"
     inkscape:pageshadow="2"
     inkscape:zoom="5.6"
     inkscape:cx="313.35587"
     inkscape:cy="429.60976"
     inkscape:document-units="mm"
     inkscape:current-layer="layer1"
     inkscape:document-rotation="0"
     showgrid="false"
     inkscape:window-width="1920"
     inkscape:window-height="1017"
     inkscape:window-x="-8"
     inkscape:window-y="-8"
     inkscape:window-maximized="1" />
  <metadata
     id="metadata5">
    <rdf:RDF>
      <cc:Work
         rdf:about="">
        <dc:format>image/svg+xml</dc:format>
        <dc:type
           rdf:resource="http://purl.org/dc/dcmitype/StillImage" />
        <dc:title></dc:title>
      </cc:Work>
    </rdf:RDF>
  </metadata>
  <g
     inkscape:label="Layer 1"
     inkscape:groupmode="layer"
     id="layer1">
    <ellipse
       style="fill:#deaa87;fill-opacity:0.58427;stroke:none;stroke-width:0.29398;stroke-linecap:butt;stroke-linejoin:bevel;stroke-miterlimit:4;stroke-dasharray:none;stop-color:#000000"
       id="ellipse975"
       cx="118.9108"
       cy="120.01279"
       rx="20.259306"
       ry="4.1104908" />
    <ellipse
       ry="1.5591515"
       rx="8.3095636"
       cy="121.64246"
       cx="71.923599"
       id="ellipse923"
       style="fill:#deaa87;fill-opacity:0.58427;stroke:none;stroke-width:0.115956;stroke-linecap:butt;stroke-linejoin:bevel;stroke-miterlimit:4;stroke-dasharray:none;stop-color:#000000" />
    <path
       id="path935"
       d="m 78.152022,115.51821 0.411924,-0.29228 -0.213248,1.46917 z"
       style="fill:#d38d5f;fill-opacity:1;stroke:#d38d5f;stroke-width:0.244807px;stroke-linecap:butt;stroke-linejoin:miter;stroke-opacity:1"
       sodipodi:nodetypes="cccc" />
    <path
       style="fill:#d38d5f;fill-opacity:1;stroke:#d38d5f;stroke-width:0.244807px;stroke-linecap:butt;stroke-linejoin:miter;stroke-opacity:1"
       d="m 65.974102,115.09299 0.411924,-0.29228 0.17654,1.32743 z"
       id="path933" />
    <path
       style="fill:#c87137;stroke:#c87137;stroke-width:0.264583px;stroke-linecap:butt;stroke-linejoin:miter;stroke-opacity:1;fill-opacity:1"
       d="m 65.271763,115.07013 15.308035,0.33073 -0.236234,0.7087 -16.252978,-0.54334 0.377976,-0.63784 z"
       id="path931" />
    <ellipse
       ry="4.1104908"
       rx="14.542417"
       cy="101.58645"
       cx="88.814461"
       id="ellipse883"
       style="fill:#deaa87;fill-opacity:0.58427;stroke:none;stroke-width:0.249071;stroke-linecap:butt;stroke-linejoin:bevel;stroke-miterlimit:4;stroke-dasharray:none;stop-color:#000000" />
    <ellipse
       style="fill:#deaa87;fill-opacity:0.58426964;stroke:none;stroke-width:0.249071;stroke-linecap:butt;stroke-linejoin:bevel;stroke-miterlimit:4;stroke-dasharray:none;stop-color:#000000"
       id="path851"
       cx="56.875751"
       cy="100.11646"
       rx="14.542417"
       ry="4.1104908" />
    <path
       style="fill:#deaa87;stroke:#deaa87;stroke-width:0.264583px;stroke-linecap:butt;stroke-linejoin:miter;stroke-opacity:1"
       d="M 46.504896,102.09696 58.66566,85.325796 66.817382,102.29741 Z"
       id="path833" />
    <path
       style="fill:#d38d5f;stroke:#d38d5f;stroke-width:0.264583px;stroke-linecap:butt;stroke-linejoin:miter;stroke-opacity:1"
       d="m 50.78041,96.353801 0.303381,1.066665 1.768759,-1.671161 1.670433,1.536803 2.634104,-2.000674 1.854444,1.724518 1.291156,-1.427689 2.037929,1.870887 1.169305,-1.837481 -1.191096,1.3116 -2.007999,-1.87807 -1.358353,1.429223 -1.712703,-1.559152 -2.693083,1.948939 -1.630021,-1.570964 -1.67727,1.523717 z"
       id="path849" />
    <path
       style="fill:#d38d5f;stroke:#d38d5f;stroke-width:0.264583px;stroke-linecap:butt;stroke-linejoin:miter;stroke-opacity:1"
       d="m 58.66566,85.325796 9.621705,13.49711 -1.469983,3.474504 z"
       id="path837" />
    <path
       style="fill:#d38d5f;stroke:#d38d5f;stroke-width:0.264583px;stroke-linecap:butt;stroke-linejoin:miter;stroke-opacity:1"
       d="m 58.66566,85.325796 -12.294397,12.962572 0.133633,3.808592 z"
       id="path839" />
    <path
       style="fill:#93aca7;stroke:#93aca7;stroke-width:0.264583px;stroke-linecap:butt;stroke-linejoin:miter;stroke-opacity:1"
       d="m 50.614167,98.522227 0.166244,-2.168424 0.30338,1.066665 1.768759,-1.671161 1.670433,1.536801 2.071338,-1.603619 1.80407,1.80407 1.904296,-1.904296 2.037929,1.870887 1.169305,-1.837479 -0.434313,2.939966 -2.505652,-1.770661 -2.03793,2.104748 -1.837478,-2.004521 -2.104747,1.670434 -1.804069,-1.937703 z"
       id="path845"
       sodipodi:nodetypes="ccccccccccccccccc" />
    <path
       style="fill:#483e37;stroke:#483e37;stroke-width:0.263;stroke-linecap:butt;stroke-linejoin:bevel;stroke-opacity:1;stroke-miterlimit:4;stroke-dasharray:none"
       d="M 55.458425,102.28581 58.66566,85.325796 59.667922,102.35206 Z"
       id="path841" />
    <path
       style="fill:#deaa87;fill-opacity:1;stroke:#deaa87;stroke-width:0.191386px;stroke-linecap:butt;stroke-linejoin:miter;stroke-opacity:1"
       d="M 81.784475,102.28189 81.91811,77.319799 97.553377,76.900268 96.751567,102.6315 Z"
       id="path853" />
    <path
       style="fill:#d38d5f;fill-opacity:1;stroke:#d38d5f;stroke-width:0.264583px;stroke-linecap:butt;stroke-linejoin:miter;stroke-opacity:1"
       d="m 83.816219,95.273623 0.992187,-1.748141 0.850448,1.913506 -0.992188,1.441035 z"
       id="path897" />
    <path
       style="fill:#d38d5f;fill-opacity:1;stroke:#d38d5f;stroke-width:0.191386px;stroke-linecap:butt;stroke-linejoin:miter;stroke-opacity:1"
       d="m 97.553377,76.900268 1.854361,-1.022732 -0.850448,25.462734 -1.805725,1.29123 z"
       id="path855" />
    <path
       style="fill:#d38d5f;fill-opacity:1;stroke:#d38d5f;stroke-width:0.191386px;stroke-linecap:butt;stroke-linejoin:miter;stroke-opacity:1"
       d="m 81.918108,77.319799 -1.503675,-1.293936 -0.472469,25.709937 1.842511,0.54609 z"
       id="path857" />
    <path
       style="fill:#deaa87;fill-opacity:1;stroke:#deaa87;stroke-width:0.219412px;stroke-linecap:butt;stroke-linejoin:miter;stroke-opacity:1"
       d="m 80.414433,76.025863 18.993305,-0.148328 -1.854361,1.022733 -15.635269,0.41953 z"
       id="path859" />
    <path
       style="fill:#deaa87;stroke:#deaa87;stroke-width:0.264583px;stroke-linecap:butt;stroke-linejoin:miter;stroke-opacity:1;fill-opacity:1"
       d="m 78.243154,73.766388 1.737251,4.87767 18.842501,0.400905 3.006784,-5.545844 z"
       id="path861" />
    <path
       style="fill:#d38d5f;stroke:#d38d5f;stroke-width:0.264583px;stroke-linecap:butt;stroke-linejoin:miter;stroke-opacity:1;fill-opacity:1"
       d="m 78.243154,73.766388 -1.561235,-1.053219 2.078868,4.960938 1.219616,0.969949 z"
       id="path863" />
    <path
       style="fill:#d38d5f;stroke:#d38d5f;stroke-width:0.264583px;stroke-linecap:butt;stroke-linejoin:miter;stroke-opacity:1;fill-opacity:1"
       d="m 101.82969,73.499119 1.4523,-0.927692 -3.07105,5.622395 -1.388034,0.851141 z"
       id="path865" />
    <path
       style="fill:#deaa87;fill-opacity:1;stroke:#deaa87;stroke-width:0.264583px;stroke-linecap:butt;stroke-linejoin:miter;stroke-opacity:1"
       d="m 80.934151,74.036086 2.173361,-3.449032 1.370166,3.449032 z"
       id="path875" />
    <path
       id="path877"
       d="m 87.78497,73.894345 2.173361,-3.449032 1.370166,3.449032 z"
       style="fill:#deaa87;fill-opacity:1;stroke:#deaa87;stroke-width:0.264583px;stroke-linecap:butt;stroke-linejoin:miter;stroke-opacity:1" />
    <path
       style="fill:#deaa87;fill-opacity:1;stroke:#deaa87;stroke-width:0.264583px;stroke-linecap:butt;stroke-linejoin:miter;stroke-opacity:1"
       d="m 94.824777,73.65811 2.173361,-3.449032 1.370166,3.449032 z"
       id="path879" />
    <path
       style="fill:#483e37;fill-opacity:1;stroke:#483e37;stroke-width:0.161413px;stroke-linecap:butt;stroke-linejoin:miter;stroke-opacity:1"
       d="M 87.479069,102.37397 V 91.6196 l 3.979481,0.156998 -0.169341,10.911372 z"
       id="path881" />
    <path
       id="path889"
       d="m 82.240448,86.411881 0.355714,1.059871 2.073869,-1.660516 1.958581,1.527014 2.428643,-1.593404 2.115271,1.792578 2.232786,-1.892166 2.38947,1.85897 1.37101,-1.825777 -1.396559,1.303246 -2.354379,-1.866108 -2.230503,1.845343 -2.079013,-1.690961 -2.448933,1.653042 -1.911198,-1.560957 -1.966599,1.514011 z"
       style="fill:#d38d5f;stroke:#d38d5f;stroke-width:0.285582px;stroke-linecap:butt;stroke-linejoin:miter;stroke-opacity:1"
       sodipodi:nodetypes="ccccccccccccccccc" />
    <path
       sodipodi:nodetypes="ccccccccccccccccc"
       id="path891"
       d="m 82.045527,88.566495 0.194922,-2.154612 0.355713,1.059871 2.073869,-1.660516 1.958581,1.527012 2.428643,-1.593404 2.115271,1.792578 2.232786,-1.892166 2.38947,1.85897 1.37101,-1.825775 -0.509232,2.921239 -2.937876,-1.759382 -2.389471,2.091341 -2.154442,-1.991752 -2.467815,1.659793 -2.11527,-1.92536 z"
       style="fill:#d35f5f;stroke:#d35f5f;stroke-width:0.285582px;stroke-linecap:butt;stroke-linejoin:miter;stroke-opacity:1" />
    <path
       style="fill:#d35f5f;stroke:#d35f5f;stroke-width:0.264583px;stroke-linecap:butt;stroke-linejoin:miter;stroke-opacity:1;fill-opacity:1"
       d="m 83.521726,96.617934 1.202714,-2.138156 0.968851,2.271789 -1.403165,2.238383 z"
       id="path893" />
    <g
       id="g965">
      <path
         style="fill:#d38d5f;fill-opacity:1;stroke:#d38d5f;stroke-width:0.264583px;stroke-linecap:butt;stroke-linejoin:miter;stroke-opacity:1"
         d="m 93.525482,95.155505 0.992187,-1.748141 0.850448,1.913506 -0.992188,1.441035 z"
         id="path899" />
      <path
         style="fill:#d35f5f;fill-opacity:1;stroke:#d35f5f;stroke-width:0.264583px;stroke-linecap:butt;stroke-linejoin:miter;stroke-opacity:1"
         d="m 93.243655,96.484299 1.202714,-2.138156 0.968851,2.271789 -1.403165,2.238383 z"
         id="path895" />
    </g>
    <circle
       style="fill:#483e37;fill-opacity:1;stroke:#483e37;stroke-width:0.263;stroke-linecap:butt;stroke-linejoin:bevel;stroke-miterlimit:4;stroke-dasharray:none;stroke-opacity:1;stop-color:#000000"
       id="path901"
       cx="84.084305"
       cy="81.149712"
       r="0.3674956" />
    <circle
       r="0.3674956"
       cy="81.149712"
       cx="86.730141"
       id="circle903"
       style="fill:#483e37;fill-opacity:1;stroke:#483e37;stroke-width:0.263;stroke-linecap:butt;stroke-linejoin:bevel;stroke-miterlimit:4;stroke-dasharray:none;stroke-opacity:1;stop-color:#000000" />
    <circle
       style="fill:#483e37;fill-opacity:1;stroke:#483e37;stroke-width:0.263;stroke-linecap:butt;stroke-linejoin:bevel;stroke-miterlimit:4;stroke-dasharray:none;stroke-opacity:1;stop-color:#000000"
       id="circle905"
       cx="89.375977"
       cy="81.149712"
       r="0.3674956" />
    <circle
       r="0.3674956"
       cy="81.149712"
       cx="92.021812"
       id="circle907"
       style="fill:#483e37;fill-opacity:1;stroke:#483e37;stroke-width:0.263;stroke-linecap:butt;stroke-linejoin:bevel;stroke-miterlimit:4;stroke-dasharray:none;stroke-opacity:1;stop-color:#000000" />
    <circle
       style="fill:#483e37;fill-opacity:1;stroke:#483e37;stroke-width:0.263;stroke-linecap:butt;stroke-linejoin:bevel;stroke-miterlimit:4;stroke-dasharray:none;stroke-opacity:1;stop-color:#000000"
       id="circle909"
       cx="94.667648"
       cy="81.149712"
       r="0.3674956" />
    <path
       style="fill:#d38d5f;fill-opacity:1;stroke:#d38d5f;stroke-width:0.264583px;stroke-linecap:butt;stroke-linejoin:miter;stroke-opacity:1"
       d="m 80.001624,78.679945 19.171807,0.428262"
       id="path911" />
    <path
       style="fill:#d38d5f;stroke:#d38d5f;stroke-width:0.264583px;stroke-linecap:butt;stroke-linejoin:miter;stroke-opacity:1"
       d="m 73.845876,118.55616 -5.110872,2.06567 1.404241,1.63508 4.554642,-2.92318 z"
       id="path915" />
    <path
       id="path919"
       d="m 70.252965,118.42018 2.882069,3.68527 1.13393,-1.32292 -2.787576,-3.02381 z"
       style="fill:#c87137;stroke:#c87137;stroke-width:0.264583px;stroke-linecap:butt;stroke-linejoin:miter;stroke-opacity:1" />
    <path
       style="fill:#c87137;stroke:#c87137;stroke-width:0.264583px;stroke-linecap:butt;stroke-linejoin:miter;stroke-opacity:1"
       d="m 69.451367,119.7505 3.683667,2.88412 0.78255,-1.55677 -3.432893,-2.26479 z"
       id="path921" />
    <path
       style="fill:#d38d5f;stroke:#d38d5f;stroke-width:0.264583px;stroke-linecap:butt;stroke-linejoin:miter;stroke-opacity:1"
       d="m 70.252965,118.94935 2.882069,3.68527 1.13393,-1.32292 -2.787576,-3.02381 z"
       id="path917" />
    <path
       style="fill:#d38d5f;fill-opacity:1;stroke:#d38d5f;stroke-width:0.264583px;stroke-linecap:butt;stroke-linejoin:miter;stroke-opacity:1"
       d="m 65.673363,121.85007 -0.04725,-6.3311 0.496484,0.2011 0.437239,0.12755 -0.414005,6.04975 z"
       id="path925"
       sodipodi:nodetypes="cccccc" />
    <path
       id="path929"
       d="m 77.579613,121.75558 -0.04725,-6.3311 0.507723,0.2028 0.44903,0.19885 -0.437035,5.97675 z"
       style="fill:#d38d5f;fill-opacity:1;stroke:#d38d5f;stroke-width:0.264583px;stroke-linecap:butt;stroke-linejoin:miter;stroke-opacity:1"
       sodipodi:nodetypes="cccccc" />
    <path
       style="fill:#deaa87;fill-opacity:1;stroke:#deaa87;stroke-width:0.322824px;stroke-linecap:butt;stroke-linejoin:miter;stroke-opacity:1"
       d="m 105.1397,109.061 -0.14104,12.25354 24.53847,-0.0943 -0.14104,-12.5363 z"
       id="path937" />
    <path
       style="fill:#d38d5f;stroke:#d38d5f;stroke-width:0.264583px;stroke-linecap:butt;stroke-linejoin:miter;stroke-opacity:1;fill-opacity:1"
       d="m 105.0976,109.04613 -1.46384,-2.13832 v 12.96257 l 1.34912,1.45998 z"
       id="path941" />
    <path
       style="fill:#e9c6af;fill-opacity:1;stroke:#e9c6af;stroke-width:0.274243px;stroke-linecap:butt;stroke-linejoin:miter;stroke-opacity:1"
       d="m 103.64526,106.9156 h 25.09223 l -2.15538,1.74753 -21.35264,0.37522 z"
       id="path943" />
    <ellipse
       ry="0.88655216"
       rx="10.403743"
       cy="107.92851"
       cx="115.46085"
       id="ellipse987"
       style="fill:#deaa87;fill-opacity:0.58427;stroke:none;stroke-width:0.0978374;stroke-linecap:butt;stroke-linejoin:bevel;stroke-miterlimit:4;stroke-dasharray:none;stop-color:#000000" />
    <path
       id="path945"
       d="m 117.77517,121.39897 0.0335,-10.41131 3.98559,0.14522 -0.13614,10.23205 z"
       style="fill:#483e37;fill-opacity:1;stroke:#483e37;stroke-width:0.155361px;stroke-linecap:butt;stroke-linejoin:miter;stroke-opacity:1"
       sodipodi:nodetypes="ccccc" />
    <path
       style="fill:#deaa87;fill-opacity:1;stroke:#deaa87;stroke-width:0.261944px;stroke-linecap:butt;stroke-linejoin:miter;stroke-opacity:1"
       d="m 125.79048,116.0459 0.8977,-0.78725 V 100.0692 h 5.24442 v 14.95789 l 1.08668,0.64834 0.0472,5.60342 h -7.27604 z"
       id="path953" />
    <path
       style="fill:#d38d5f;fill-opacity:1;stroke:#d38d5f;stroke-width:0.264583px;stroke-linecap:butt;stroke-linejoin:miter;stroke-opacity:1"
       d="m 131.9326,100.0692 1.65364,-1.464663 -0.14174,14.882813 1.46466,0.61421 -0.11402,6.23325 -1.72866,0.94404 -0.0472,-5.28741 -1.08668,-0.66146 z"
       id="path955"
       sodipodi:nodetypes="ccccccccc" />
    <path
       style="fill:#e9c6af;fill-opacity:1;stroke:#e9c6af;stroke-width:0.264583px;stroke-linecap:butt;stroke-linejoin:miter;stroke-opacity:1"
       d="m 126.68818,100.0692 -0.60949,-1.299297 7.50755,-0.165366 -1.65364,1.464663 z"
       id="path957"
       sodipodi:nodetypes="ccccc" />
    <path
       style="fill:#d38d5f;stroke:#d38d5f;stroke-width:0.264583px;stroke-linecap:butt;stroke-linejoin:miter;stroke-opacity:1;fill-opacity:1"
       d="m 126.07869,98.769902 v 8.953308 l 0.50342,0.93992 0.10607,-8.59393 z"
       id="path961" />
    <g
       id="g971"
       transform="matrix(2.7688332,0,0,1,-149.57524,19.196158)">
      <path
         id="path967"
         d="m 93.525482,95.155505 0.992187,-1.748141 0.850448,1.913506 -0.992188,1.441035 z"
         style="fill:#d38d5f;fill-opacity:1;stroke:#d38d5f;stroke-width:0.264583px;stroke-linecap:butt;stroke-linejoin:miter;stroke-opacity:1" />
      <path
         id="path969"
         d="m 93.243655,96.484299 1.202714,-2.138156 0.968851,2.271789 -1.403165,2.238383 z"
         style="fill:#00aa88;fill-opacity:1;stroke:#00aa88;stroke-width:0.264583px;stroke-linecap:butt;stroke-linejoin:miter;stroke-opacity:1" />
    </g>
    <path
       style="fill:#483e37;stroke:#483e37;stroke-width:0.264583px;stroke-linecap:butt;stroke-linejoin:miter;stroke-opacity:1;fill-opacity:1"
       d="m 124.9485,112.11956 0.008,3.69471 4.19318,-0.10631 v -3.85063 z"
       id="path973" />
    <path
       id="path977"
       d="m 107.43614,101.43938 18.80568,0.33073 -0.29022,0.7087 -19.96652,-0.54334 0.46434,-0.63784 z"
       style="fill:#c87137;fill-opacity:1;stroke:#c87137;stroke-width:0.293256px;stroke-linecap:butt;stroke-linejoin:miter;stroke-opacity:1" />
    <path
       sodipodi:nodetypes="cccccc"
       id="path979"
       d="m 107.56786,108.21932 -0.0472,-6.3311 0.49649,0.2011 0.43723,0.12755 -0.414,6.04975 z"
       style="fill:#d38d5f;fill-opacity:1;stroke:#d38d5f;stroke-width:0.264583px;stroke-linecap:butt;stroke-linejoin:miter;stroke-opacity:1" />
    <path
       style="fill:#483e37;stroke:#483e37;stroke-width:0.264583px;stroke-linecap:butt;stroke-linejoin:miter;stroke-opacity:1;fill-opacity:1"
       d="m 112.40067,101.91183 -0.11812,1.46466 0.6263,0.0109 0.025,-1.44075 z"
       id="path981" />
    <path
       id="path983"
       d="m 116.63403,101.91183 -0.11812,1.46466 0.6263,0.0109 0.025,-1.44075 z"
       style="fill:#483e37;fill-opacity:1;stroke:#483e37;stroke-width:0.264583px;stroke-linecap:butt;stroke-linejoin:miter;stroke-opacity:1" />
    <path
       style="fill:#483e37;fill-opacity:1;stroke:#483e37;stroke-width:0.264583px;stroke-linecap:butt;stroke-linejoin:miter;stroke-opacity:1"
       d="m 120.86739,101.91183 -0.11812,1.46466 0.6263,0.0109 0.025,-1.44075 z"
       id="path985" />
    <path
       style="fill:#483e37;fill-opacity:1;stroke:#483e37;stroke-width:0.187965px;stroke-linecap:butt;stroke-linejoin:miter;stroke-opacity:1"
       d="m 128.02103,99.283019 0.40154,0.741741 2.37582,0.005 0.90349,-0.783845 z"
       id="path989" />
    <path
       style="fill:#e9c6af;stroke:#e9c6af;stroke-width:0.264583px;stroke-linecap:butt;stroke-linejoin:miter;stroke-opacity:1;fill-opacity:1"
       d="m 48.643053,142.45466 h 27.796031 v 2.73544 H 48.475447 Z"
       id="path991" />
    <path
       style="fill:#deaa87;stroke:#deaa87;stroke-width:0.264583px;stroke-linecap:butt;stroke-linejoin:miter;stroke-opacity:1;fill-opacity:1"
       d="m 48.475447,145.1901 0.09449,4.016 h 28.159226 l -0.290084,-4.016 z"
       id="path993" />
    <path
       style="fill:#ffb380;stroke:#deaa87;stroke-width:0.264583px;stroke-linecap:butt;stroke-linejoin:miter;stroke-opacity:1;fill-opacity:1"
       d="m 84.005207,108.43192 0.09449,10.81957 4.299479,0.14174 -0.472469,-11.67002 z"
       id="path995" />
  </g>
</svg>
