<?xml version="1.0" encoding="UTF-8" standalone="no"?>
<svg
   xmlns:dc="http://purl.org/dc/elements/1.1/"
   xmlns:cc="http://creativecommons.org/ns#"
   xmlns:rdf="http://www.w3.org/1999/02/22-rdf-syntax-ns#"
   xmlns:svg="http://www.w3.org/2000/svg"
   xmlns="http://www.w3.org/2000/svg"
   xmlns:sodipodi="http://sodipodi.sourceforge.net/DTD/sodipodi-0.dtd"
   xmlns:inkscape="http://www.inkscape.org/namespaces/inkscape"
   sodipodi:docname="drawing.svg"
   inkscape:version="1.0 (4035a4fb49, 2020-05-01)"
   id="svg8"
   version="1.1"
   viewBox="0 0 210 297"
   height="297mm"
   width="210mm">
  <defs
     id="defs2" />
  <sodipodi:namedview
     inkscape:window-maximized="1"
     inkscape:window-y="-8"
     inkscape:window-x="-8"
     inkscape:window-height="1017"
     inkscape:window-width="1920"
     showgrid="false"
     inkscape:document-rotation="0"
     inkscape:current-layer="layer1"
     inkscape:document-units="mm"
     inkscape:cy="326.1086"
     inkscape:cx="285.46771"
     inkscape:zoom="2.8"
     inkscape:pageshadow="2"
     inkscape:pageopacity="0.0"
     borderopacity="1.0"
     bordercolor="#666666"
     pagecolor="#ffffff"
     id="base" />
  <metadata
     id="metadata5">
    <rdf:RDF>
      <cc:Work
         rdf:about="">
        <dc:format>image/svg+xml</dc:format>
        <dc:type
           rdf:resource="http://purl.org/dc/dcmitype/StillImage" />
        <dc:title></dc:title>
      </cc:Work>
    </rdf:RDF>
  </metadata>
  <g
     id="layer1"
     inkscape:groupmode="layer"
     inkscape:label="Layer 1">
    <path
       style="fill:#aad400;fill-opacity:1;stroke:#aad400;stroke-width:0.178836px;stroke-linecap:butt;stroke-linejoin:miter;stroke-opacity:1"
       d="m 68.157888,108.87333 0.06387,7.31313 2.90609,0.0958 -0.31935,-7.88796 z"
       id="path1014" />
    <ellipse
       style="fill:#deaa87;fill-opacity:0.58427;stroke:none;stroke-width:0.279313;stroke-linecap:butt;stroke-linejoin:bevel;stroke-miterlimit:4;stroke-dasharray:none;stop-color:#000000"
       id="ellipse986"
       cx="109.65123"
       cy="145.67065"
       rx="18.288193"
       ry="4.1104908" />
    <ellipse
       style="fill:#deaa87;fill-opacity:0.58427;stroke:none;stroke-width:0.234483;stroke-linecap:butt;stroke-linejoin:bevel;stroke-miterlimit:4;stroke-dasharray:none;stop-color:#000000"
       id="ellipse948"
       cx="19.881037"
       cy="135.69879"
       rx="12.88877"
       ry="4.1104908" />
    <path
       style="fill:#d38d5f;stroke:#d38d5f;stroke-width:0.264583px;stroke-linecap:butt;stroke-linejoin:miter;stroke-opacity:1;fill-opacity:1"
       d="m 29.749363,128.36179 0.465109,0.81157 v 6.08306 l -0.72589,1.41772 0.09779,-7.33442 z"
       id="path946" />
    <ellipse
       ry="1.5591515"
       rx="5.2385073"
       cy="116.30354"
       cx="49.859238"
       id="ellipse920"
       style="fill:#9dac93;fill-opacity:0.57999998;stroke:none;stroke-width:0.0920678;stroke-linecap:butt;stroke-linejoin:bevel;stroke-miterlimit:4;stroke-dasharray:none;stop-color:#000000;opacity:1" />
    <ellipse
       ry="4.1104908"
       rx="20.259306"
       cy="120.01279"
       cx="118.9108"
       id="ellipse975"
       style="fill:#deaa87;fill-opacity:0.58427;stroke:none;stroke-width:0.29398;stroke-linecap:butt;stroke-linejoin:bevel;stroke-miterlimit:4;stroke-dasharray:none;stop-color:#000000" />
    <ellipse
       style="fill:#deaa87;fill-opacity:0.58427;stroke:none;stroke-width:0.115956;stroke-linecap:butt;stroke-linejoin:bevel;stroke-miterlimit:4;stroke-dasharray:none;stop-color:#000000;opacity:1"
       id="ellipse923"
       cx="71.923599"
       cy="121.64246"
       rx="8.3095636"
       ry="1.5591515" />
    <path
       sodipodi:nodetypes="cccc"
       style="fill:#d38d5f;fill-opacity:1;stroke:#d38d5f;stroke-width:0.244807px;stroke-linecap:butt;stroke-linejoin:miter;stroke-opacity:1"
       d="m 78.152022,115.51821 0.411924,-0.29228 -0.213248,1.46917 z"
       id="path935" />
    <path
       id="path933"
       d="m 65.974102,115.09299 0.411924,-0.29228 0.17654,1.32743 z"
       style="fill:#d38d5f;fill-opacity:1;stroke:#d38d5f;stroke-width:0.244807px;stroke-linecap:butt;stroke-linejoin:miter;stroke-opacity:1" />
    <path
       id="path931"
       d="m 65.271763,115.07013 15.308035,0.33073 -0.236234,0.7087 -16.252978,-0.54334 0.377976,-0.63784 z"
       style="fill:#c87137;stroke:#c87137;stroke-width:0.264583px;stroke-linecap:butt;stroke-linejoin:miter;stroke-opacity:1;fill-opacity:1" />
    <ellipse
       style="fill:#deaa87;fill-opacity:0.58427;stroke:none;stroke-width:0.249071;stroke-linecap:butt;stroke-linejoin:bevel;stroke-miterlimit:4;stroke-dasharray:none;stop-color:#000000"
       id="ellipse883"
       cx="88.814461"
       cy="101.58645"
       rx="14.542417"
       ry="4.1104908" />
    <ellipse
       ry="4.1104908"
       rx="14.542417"
       cy="100.11646"
       cx="56.875751"
       id="path851"
       style="fill:#deaa87;fill-opacity:0.58426964;stroke:none;stroke-width:0.249071;stroke-linecap:butt;stroke-linejoin:bevel;stroke-miterlimit:4;stroke-dasharray:none;stop-color:#000000" />
    <path
       id="path833"
       d="M 46.504896,102.09696 58.66566,85.325796 66.817382,102.29741 Z"
       style="fill:#deaa87;stroke:#deaa87;stroke-width:0.264583px;stroke-linecap:butt;stroke-linejoin:miter;stroke-opacity:1" />
    <path
       id="path849"
       d="m 50.78041,96.353801 0.303381,1.066665 1.768759,-1.671161 1.670433,1.536803 2.634104,-2.000674 1.854444,1.724518 1.291156,-1.427689 2.037929,1.870887 1.169305,-1.837481 -1.191096,1.3116 -2.007999,-1.87807 -1.358353,1.429223 -1.712703,-1.559152 -2.693083,1.948939 -1.630021,-1.570964 -1.67727,1.523717 z"
       style="fill:#d38d5f;stroke:#d38d5f;stroke-width:0.264583px;stroke-linecap:butt;stroke-linejoin:miter;stroke-opacity:1" />
    <path
       id="path837"
       d="m 58.66566,85.325796 9.621705,13.49711 -1.469983,3.474504 z"
       style="fill:#d38d5f;stroke:#d38d5f;stroke-width:0.264583px;stroke-linecap:butt;stroke-linejoin:miter;stroke-opacity:1" />
    <path
       id="path839"
       d="m 58.66566,85.325796 -12.294397,12.962572 0.133633,3.808592 z"
       style="fill:#d38d5f;stroke:#d38d5f;stroke-width:0.264583px;stroke-linecap:butt;stroke-linejoin:miter;stroke-opacity:1" />
    <path
       sodipodi:nodetypes="ccccccccccccccccc"
       id="path845"
       d="m 50.614167,98.522227 0.166244,-2.168424 0.30338,1.066665 1.768759,-1.671161 1.670433,1.536801 2.071338,-1.603619 1.80407,1.80407 1.904296,-1.904296 2.037929,1.870887 1.169305,-1.837479 -0.434313,2.939966 -2.505652,-1.770661 -2.03793,2.104748 -1.837478,-2.004521 -2.104747,1.670434 -1.804069,-1.937703 z"
       style="fill:#93aca7;stroke:#93aca7;stroke-width:0.264583px;stroke-linecap:butt;stroke-linejoin:miter;stroke-opacity:1" />
    <path
       id="path841"
       d="M 55.458425,102.28581 58.66566,85.325796 59.667922,102.35206 Z"
       style="fill:#483e37;stroke:#483e37;stroke-width:0.263;stroke-linecap:butt;stroke-linejoin:bevel;stroke-opacity:1;stroke-miterlimit:4;stroke-dasharray:none" />
    <path
       id="path853"
       d="M 81.784475,102.28189 81.91811,77.319799 97.553377,76.900268 96.751567,102.6315 Z"
       style="fill:#deaa87;fill-opacity:1;stroke:#deaa87;stroke-width:0.191386px;stroke-linecap:butt;stroke-linejoin:miter;stroke-opacity:1" />
    <path
       id="path897"
       d="m 83.816219,95.273623 0.992187,-1.748141 0.850448,1.913506 -0.992188,1.441035 z"
       style="fill:#d38d5f;fill-opacity:1;stroke:#d38d5f;stroke-width:0.264583px;stroke-linecap:butt;stroke-linejoin:miter;stroke-opacity:1" />
    <path
       id="path855"
       d="m 97.553377,76.900268 1.854361,-1.022732 -0.850448,25.462734 -1.805725,1.29123 z"
       style="fill:#d38d5f;fill-opacity:1;stroke:#d38d5f;stroke-width:0.191386px;stroke-linecap:butt;stroke-linejoin:miter;stroke-opacity:1" />
    <path
       id="path857"
       d="m 81.918108,77.319799 -1.503675,-1.293936 -0.472469,25.709937 1.842511,0.54609 z"
       style="fill:#d38d5f;fill-opacity:1;stroke:#d38d5f;stroke-width:0.191386px;stroke-linecap:butt;stroke-linejoin:miter;stroke-opacity:1" />
    <path
       id="path859"
       d="m 80.414433,76.025863 18.993305,-0.148328 -1.854361,1.022733 -15.635269,0.41953 z"
       style="fill:#deaa87;fill-opacity:1;stroke:#deaa87;stroke-width:0.219412px;stroke-linecap:butt;stroke-linejoin:miter;stroke-opacity:1" />
    <path
       id="path861"
       d="m 78.243154,73.766388 1.737251,4.87767 18.842501,0.400905 3.006784,-5.545844 z"
       style="fill:#deaa87;stroke:#deaa87;stroke-width:0.264583px;stroke-linecap:butt;stroke-linejoin:miter;stroke-opacity:1;fill-opacity:1" />
    <path
       id="path863"
       d="m 78.243154,73.766388 -1.561235,-1.053219 2.078868,4.960938 1.219616,0.969949 z"
       style="fill:#d38d5f;stroke:#d38d5f;stroke-width:0.264583px;stroke-linecap:butt;stroke-linejoin:miter;stroke-opacity:1;fill-opacity:1" />
    <path
       id="path865"
       d="m 101.82969,73.499119 1.4523,-0.927692 -3.07105,5.622395 -1.388034,0.851141 z"
       style="fill:#d38d5f;stroke:#d38d5f;stroke-width:0.264583px;stroke-linecap:butt;stroke-linejoin:miter;stroke-opacity:1;fill-opacity:1" />
    <path
       id="path875"
       d="m 80.934151,74.036086 2.173361,-3.449032 1.370166,3.449032 z"
       style="fill:#deaa87;fill-opacity:1;stroke:#deaa87;stroke-width:0.264583px;stroke-linecap:butt;stroke-linejoin:miter;stroke-opacity:1" />
    <path
       style="fill:#deaa87;fill-opacity:1;stroke:#deaa87;stroke-width:0.264583px;stroke-linecap:butt;stroke-linejoin:miter;stroke-opacity:1"
       d="m 87.78497,73.894345 2.173361,-3.449032 1.370166,3.449032 z"
       id="path877" />
    <path
       id="path879"
       d="m 94.824777,73.65811 2.173361,-3.449032 1.370166,3.449032 z"
       style="fill:#deaa87;fill-opacity:1;stroke:#deaa87;stroke-width:0.264583px;stroke-linecap:butt;stroke-linejoin:miter;stroke-opacity:1" />
    <path
       id="path881"
       d="M 87.479069,102.37397 V 91.6196 l 3.979481,0.156998 -0.169341,10.911372 z"
       style="fill:#483e37;fill-opacity:1;stroke:#483e37;stroke-width:0.161413px;stroke-linecap:butt;stroke-linejoin:miter;stroke-opacity:1" />
    <g
       id="g1032">
      <path
         id="path889"
         d="m 82.240448,86.411881 0.355714,1.059871 2.073869,-1.660516 1.958581,1.527014 2.428643,-1.593404 2.115271,1.792578 2.232786,-1.892166 2.38947,1.85897 1.37101,-1.825777 -1.396559,1.303246 -2.354379,-1.866108 -2.230503,1.845343 -2.079013,-1.690961 -2.448933,1.653042 -1.911198,-1.560957 -1.966599,1.514011 z"
         style="fill:#d38d5f;stroke:#d38d5f;stroke-width:0.285582px;stroke-linecap:butt;stroke-linejoin:miter;stroke-opacity:1"
         sodipodi:nodetypes="ccccccccccccccccc" />
      <path
         sodipodi:nodetypes="ccccccccccccccccc"
         id="path891"
         d="m 82.045527,88.566495 0.194922,-2.154612 0.355713,1.059871 2.073869,-1.660516 1.958581,1.527012 2.428643,-1.593404 2.115271,1.792578 2.232786,-1.892166 2.38947,1.85897 1.37101,-1.825775 -0.509232,2.921239 -2.937876,-1.759382 -2.389471,2.091341 -2.154442,-1.991752 -2.467815,1.659793 -2.11527,-1.92536 z"
         style="fill:#d35f5f;stroke:#d35f5f;stroke-width:0.285582px;stroke-linecap:butt;stroke-linejoin:miter;stroke-opacity:1" />
    </g>
    <path
       id="path893"
       d="m 83.521726,96.617934 1.202714,-2.138156 0.968851,2.271789 -1.403165,2.238383 z"
       style="fill:#d35f5f;stroke:#d35f5f;stroke-width:0.264583px;stroke-linecap:butt;stroke-linejoin:miter;stroke-opacity:1;fill-opacity:1" />
    <g
       id="g965">
      <path
         id="path899"
         d="m 93.525482,95.155505 0.992187,-1.748141 0.850448,1.913506 -0.992188,1.441035 z"
         style="fill:#d38d5f;fill-opacity:1;stroke:#d38d5f;stroke-width:0.264583px;stroke-linecap:butt;stroke-linejoin:miter;stroke-opacity:1" />
      <path
         id="path895"
         d="m 93.243655,96.484299 1.202714,-2.138156 0.968851,2.271789 -1.403165,2.238383 z"
         style="fill:#d35f5f;fill-opacity:1;stroke:#d35f5f;stroke-width:0.264583px;stroke-linecap:butt;stroke-linejoin:miter;stroke-opacity:1" />
    </g>
    <circle
       r="0.3674956"
       cy="81.149712"
       cx="84.084305"
       id="path901"
       style="fill:#483e37;fill-opacity:1;stroke:#483e37;stroke-width:0.263;stroke-linecap:butt;stroke-linejoin:bevel;stroke-miterlimit:4;stroke-dasharray:none;stroke-opacity:1;stop-color:#000000" />
    <circle
       style="fill:#483e37;fill-opacity:1;stroke:#483e37;stroke-width:0.263;stroke-linecap:butt;stroke-linejoin:bevel;stroke-miterlimit:4;stroke-dasharray:none;stroke-opacity:1;stop-color:#000000"
       id="circle903"
       cx="86.730141"
       cy="81.149712"
       r="0.3674956" />
    <circle
       r="0.3674956"
       cy="81.149712"
       cx="89.375977"
       id="circle905"
       style="fill:#483e37;fill-opacity:1;stroke:#483e37;stroke-width:0.263;stroke-linecap:butt;stroke-linejoin:bevel;stroke-miterlimit:4;stroke-dasharray:none;stroke-opacity:1;stop-color:#000000" />
    <circle
       style="fill:#483e37;fill-opacity:1;stroke:#483e37;stroke-width:0.263;stroke-linecap:butt;stroke-linejoin:bevel;stroke-miterlimit:4;stroke-dasharray:none;stroke-opacity:1;stop-color:#000000"
       id="circle907"
       cx="92.021812"
       cy="81.149712"
       r="0.3674956" />
    <circle
       r="0.3674956"
       cy="81.149712"
       cx="94.667648"
       id="circle909"
       style="fill:#483e37;fill-opacity:1;stroke:#483e37;stroke-width:0.263;stroke-linecap:butt;stroke-linejoin:bevel;stroke-miterlimit:4;stroke-dasharray:none;stroke-opacity:1;stop-color:#000000" />
    <path
       id="path911"
       d="m 80.001624,78.679945 19.171807,0.428262"
       style="fill:#d38d5f;fill-opacity:1;stroke:#d38d5f;stroke-width:0.264583px;stroke-linecap:butt;stroke-linejoin:miter;stroke-opacity:1" />
    <path
       id="path915"
       d="m 73.845876,118.55616 -5.110872,2.06567 1.404241,1.63508 4.554642,-2.92318 z"
       style="fill:#d38d5f;stroke:#d38d5f;stroke-width:0.264583px;stroke-linecap:butt;stroke-linejoin:miter;stroke-opacity:1" />
    <path
       style="fill:#c87137;stroke:#c87137;stroke-width:0.264583px;stroke-linecap:butt;stroke-linejoin:miter;stroke-opacity:1"
       d="m 70.252965,118.42018 2.882069,3.68527 1.13393,-1.32292 -2.787576,-3.02381 z"
       id="path919" />
    <path
       id="path921"
       d="m 69.451367,119.7505 3.683667,2.88412 0.78255,-1.55677 -3.432893,-2.26479 z"
       style="fill:#c87137;stroke:#c87137;stroke-width:0.264583px;stroke-linecap:butt;stroke-linejoin:miter;stroke-opacity:1" />
    <path
       id="path917"
       d="m 70.252965,118.94935 2.882069,3.68527 1.13393,-1.32292 -2.787576,-3.02381 z"
       style="fill:#d38d5f;stroke:#d38d5f;stroke-width:0.264583px;stroke-linecap:butt;stroke-linejoin:miter;stroke-opacity:1" />
    <path
       sodipodi:nodetypes="cccccc"
       id="path925"
       d="m 65.673363,121.85007 -0.04725,-6.3311 0.496484,0.2011 0.437239,0.12755 -0.414005,6.04975 z"
       style="fill:#d38d5f;fill-opacity:1;stroke:#d38d5f;stroke-width:0.264583px;stroke-linecap:butt;stroke-linejoin:miter;stroke-opacity:1" />
    <path
       sodipodi:nodetypes="cccccc"
       style="fill:#d38d5f;fill-opacity:1;stroke:#d38d5f;stroke-width:0.264583px;stroke-linecap:butt;stroke-linejoin:miter;stroke-opacity:1"
       d="m 77.579613,121.75558 -0.04725,-6.3311 0.507723,0.2028 0.44903,0.19885 -0.437035,5.97675 z"
       id="path929" />
    <path
       id="path937"
       d="m 105.1397,109.061 -0.14104,12.25354 24.53847,-0.0943 -0.14104,-12.5363 z"
       style="fill:#deaa87;fill-opacity:1;stroke:#deaa87;stroke-width:0.322824px;stroke-linecap:butt;stroke-linejoin:miter;stroke-opacity:1" />
    <path
       id="path941"
       d="m 105.0976,109.04613 -1.46384,-2.13832 v 12.96257 l 1.34912,1.45998 z"
       style="fill:#d38d5f;stroke:#d38d5f;stroke-width:0.264583px;stroke-linecap:butt;stroke-linejoin:miter;stroke-opacity:1;fill-opacity:1" />
    <path
       id="path943"
       d="m 103.64526,106.9156 h 25.09223 l -2.15538,1.74753 -21.35264,0.37522 z"
       style="fill:#e9c6af;fill-opacity:1;stroke:#e9c6af;stroke-width:0.274243px;stroke-linecap:butt;stroke-linejoin:miter;stroke-opacity:1" />
    <ellipse
       style="fill:#deaa87;fill-opacity:0.58427;stroke:none;stroke-width:0.0978374;stroke-linecap:butt;stroke-linejoin:bevel;stroke-miterlimit:4;stroke-dasharray:none;stop-color:#000000"
       id="ellipse987"
       cx="115.46085"
       cy="107.92851"
       rx="10.403743"
       ry="0.88655216" />
    <path
       sodipodi:nodetypes="ccccc"
       style="fill:#483e37;fill-opacity:1;stroke:#483e37;stroke-width:0.155361px;stroke-linecap:butt;stroke-linejoin:miter;stroke-opacity:1"
       d="m 117.77517,121.39897 0.0335,-10.41131 3.98559,0.14522 -0.13614,10.23205 z"
       id="path945" />
    <path
       id="path953"
       d="m 125.79048,116.0459 0.8977,-0.78725 V 100.0692 h 5.24442 v 14.95789 l 1.08668,0.64834 0.0472,5.60342 h -7.27604 z"
       style="fill:#deaa87;fill-opacity:1;stroke:#deaa87;stroke-width:0.261944px;stroke-linecap:butt;stroke-linejoin:miter;stroke-opacity:1" />
    <path
       sodipodi:nodetypes="ccccccccc"
       id="path955"
       d="m 131.9326,100.0692 1.65364,-1.464663 -0.14174,14.882813 1.46466,0.61421 -0.11402,6.23325 -1.72866,0.94404 -0.0472,-5.28741 -1.08668,-0.66146 z"
       style="fill:#d38d5f;fill-opacity:1;stroke:#d38d5f;stroke-width:0.264583px;stroke-linecap:butt;stroke-linejoin:miter;stroke-opacity:1" />
    <path
       sodipodi:nodetypes="ccccc"
       id="path957"
       d="m 126.68818,100.0692 -0.60949,-1.299297 7.50755,-0.165366 -1.65364,1.464663 z"
       style="fill:#e9c6af;fill-opacity:1;stroke:#e9c6af;stroke-width:0.264583px;stroke-linecap:butt;stroke-linejoin:miter;stroke-opacity:1" />
    <path
       id="path961"
       d="m 126.07869,98.769902 v 8.953308 l 0.50342,0.93992 0.10607,-8.59393 z"
       style="fill:#d38d5f;stroke:#d38d5f;stroke-width:0.264583px;stroke-linecap:butt;stroke-linejoin:miter;stroke-opacity:1;fill-opacity:1" />
    <g
       transform="matrix(2.7688332,0,0,1,-149.57524,19.196158)"
       id="g971">
      <path
         style="fill:#d38d5f;fill-opacity:1;stroke:#d38d5f;stroke-width:0.264583px;stroke-linecap:butt;stroke-linejoin:miter;stroke-opacity:1"
         d="m 93.525482,95.155505 0.992187,-1.748141 0.850448,1.913506 -0.992188,1.441035 z"
         id="path967" />
      <path
         style="fill:#00aa88;fill-opacity:1;stroke:#00aa88;stroke-width:0.264583px;stroke-linecap:butt;stroke-linejoin:miter;stroke-opacity:1"
         d="m 93.243655,96.484299 1.202714,-2.138156 0.968851,2.271789 -1.403165,2.238383 z"
         id="path969" />
    </g>
    <path
       id="path973"
       d="m 124.9485,112.11956 0.008,3.69471 4.19318,-0.10631 v -3.85063 z"
       style="fill:#483e37;stroke:#483e37;stroke-width:0.264583px;stroke-linecap:butt;stroke-linejoin:miter;stroke-opacity:1;fill-opacity:1" />
    <path
       style="fill:#c87137;fill-opacity:1;stroke:#c87137;stroke-width:0.293256px;stroke-linecap:butt;stroke-linejoin:miter;stroke-opacity:1"
       d="m 107.43614,101.43938 18.80568,0.33073 -0.29022,0.7087 -19.96652,-0.54334 0.46434,-0.63784 z"
       id="path977" />
    <path
       style="fill:#d38d5f;fill-opacity:1;stroke:#d38d5f;stroke-width:0.264583px;stroke-linecap:butt;stroke-linejoin:miter;stroke-opacity:1"
       d="m 107.56786,108.21932 -0.0472,-6.3311 0.49649,0.2011 0.43723,0.12755 -0.414,6.04975 z"
       id="path979"
       sodipodi:nodetypes="cccccc" />
    <path
       id="path981"
       d="m 112.40067,101.91183 -0.11812,1.46466 0.6263,0.0109 0.025,-1.44075 z"
       style="fill:#483e37;stroke:#483e37;stroke-width:0.264583px;stroke-linecap:butt;stroke-linejoin:miter;stroke-opacity:1;fill-opacity:1" />
    <path
       style="fill:#483e37;fill-opacity:1;stroke:#483e37;stroke-width:0.264583px;stroke-linecap:butt;stroke-linejoin:miter;stroke-opacity:1"
       d="m 116.63403,101.91183 -0.11812,1.46466 0.6263,0.0109 0.025,-1.44075 z"
       id="path983" />
    <path
       id="path985"
       d="m 120.86739,101.91183 -0.11812,1.46466 0.6263,0.0109 0.025,-1.44075 z"
       style="fill:#483e37;fill-opacity:1;stroke:#483e37;stroke-width:0.264583px;stroke-linecap:butt;stroke-linejoin:miter;stroke-opacity:1" />
    <path
       id="path989"
       d="m 128.02103,99.283019 0.40154,0.741741 2.37582,0.005 0.90349,-0.783845 z"
       style="fill:#483e37;fill-opacity:1;stroke:#483e37;stroke-width:0.187965px;stroke-linecap:butt;stroke-linejoin:miter;stroke-opacity:1" />
    <path
       id="path991"
       d="m 48.643053,142.45466 h 27.796031 v 2.73544 H 48.475447 Z"
       style="fill:#e9c6af;stroke:#e9c6af;stroke-width:0.264583px;stroke-linecap:butt;stroke-linejoin:miter;stroke-opacity:1;fill-opacity:1" />
    <path
       id="path993"
       d="m 48.475447,145.1901 0.09449,4.016 h 28.159226 l -0.290084,-4.016 z"
       style="fill:#deaa87;stroke:#deaa87;stroke-width:0.264583px;stroke-linecap:butt;stroke-linejoin:miter;stroke-opacity:1;fill-opacity:1" />
    <path
       id="path995"
       d="m 84.005207,108.43192 0.09449,10.81957 4.299479,0.14174 -0.472469,-11.67002 z"
       style="fill:#cd87de;stroke:#cd87de;stroke-width:0.264583px;stroke-linecap:butt;stroke-linejoin:miter;stroke-opacity:1;fill-opacity:1" />
    <path
       style="fill:#7c916f;stroke:#7c916f;stroke-width:0.264583px;stroke-linecap:butt;stroke-linejoin:miter;stroke-opacity:1"
       d="m 88.127511,110.93601 -2.137929,3.37816 -2.01981,0.2953 0.04725,3.55533 4.453033,0.0591 -0.2008,-3.63802 -1.122117,-0.29529 1.086681,-2.42141 z"
       id="path905" />
    <path
       style="fill:#5d6c53;stroke:#5d6c53;stroke-width:0.264583px;stroke-linecap:butt;stroke-linejoin:miter;stroke-opacity:1;fill-opacity:1"
       d="m 44.700827,110.04823 -1.536798,3.27405 4.476763,-0.33409 2.472243,3.60814 -1.603616,-5.21176 z"
       id="path907" />
    <path
       style="fill:#5d6c53;stroke:#5d6c53;stroke-width:0.264583px;stroke-linecap:butt;stroke-linejoin:miter;stroke-opacity:1;fill-opacity:1"
       d="m 50.113035,116.59633 0.801809,-5.34539 4.075862,-2.13816 1.336347,2.73952 -4.209495,0.26726 z"
       id="path909" />
    <path
       style="fill:#7c916f;stroke:#7c916f;stroke-width:0.264583px;stroke-linecap:butt;stroke-linejoin:miter;stroke-opacity:1"
       d="m 50.113035,116.59633 -0.361921,-4.71538 3.874257,-2.78757 1.086681,2.12611 -4.393973,4.25223 z"
       id="path912" />
    <path
       style="fill:#7c916f;stroke:#7c916f;stroke-width:0.264583px;stroke-linecap:butt;stroke-linejoin:miter;stroke-opacity:1"
       d="m 50.113035,116.59633 -1.904293,-4.14268 -3.073601,1.50339 2.572469,0.63477 z"
       id="path914" />
    <path
       style="fill:#9dac93;stroke:#9dac93;stroke-width:0.264583px;stroke-linecap:butt;stroke-linejoin:miter;stroke-opacity:1"
       d="m 50.113035,116.59633 2.071338,-2.50565 3.073601,-0.20045 -0.200453,1.33634 -2.23838,-0.0668 z"
       id="path916" />
    <path
       style="fill:#9dac93;stroke:#9dac93;stroke-width:0.264583px;stroke-linecap:butt;stroke-linejoin:miter;stroke-opacity:1;fill-opacity:1"
       d="m 50.113035,116.59633 -1.336347,-1.9043 -0.868627,1.46999 0.935445,-0.70159 z"
       id="path918" />
    <g
       id="g935">
      <path
         id="path922"
         d="m 14.165285,123.67897 6.748555,-0.33408 7.082643,-3.80859 -0.200454,15.03391 -6.815371,2.07133 -8.485808,0.26727 z"
         style="fill:#deaa87;stroke:#deaa87;stroke-width:0.264583px;stroke-linecap:butt;stroke-linejoin:miter;stroke-opacity:1;fill-opacity:1" />
      <path
         id="path924"
         d="m 11.893494,121.07309 7.416729,-4.6104 9.020347,1.06908 -0.334087,2.00453 -7.082643,3.80859 -6.748555,0.33408 z"
         style="fill:#e9c6af;stroke:#e9c6af;stroke-width:0.264583px;stroke-linecap:butt;stroke-linejoin:miter;stroke-opacity:1;fill-opacity:1" />
      <path
         id="path926"
         d="m 11.893494,121.07309 -1.5368,13.4303 2.138156,2.40542 1.670435,-13.22984 z"
         style="fill:#d38d5f;stroke:#d38d5f;stroke-width:0.264583px;stroke-linecap:butt;stroke-linejoin:miter;stroke-opacity:1;fill-opacity:1" />
    </g>
    <g
       id="g944"
       transform="matrix(0.48785829,0,0,0.48785829,15.928059,71.022946)">
      <path
         style="fill:#deaa87;fill-opacity:1;stroke:#deaa87;stroke-width:0.264583px;stroke-linecap:butt;stroke-linejoin:miter;stroke-opacity:1"
         d="m 14.165285,123.67897 6.748555,-0.33408 7.082643,-3.80859 -0.200454,15.03391 -6.815371,2.07133 -8.485808,0.26727 z"
         id="path938" />
      <path
         style="fill:#e9c6af;fill-opacity:1;stroke:#e9c6af;stroke-width:0.264583px;stroke-linecap:butt;stroke-linejoin:miter;stroke-opacity:1"
         d="m 11.893494,121.07309 7.416729,-4.6104 9.020347,1.06908 -0.334087,2.00453 -7.082643,3.80859 -6.748555,0.33408 z"
         id="path940" />
      <path
         style="fill:#d38d5f;fill-opacity:1;stroke:#d38d5f;stroke-width:0.264583px;stroke-linecap:butt;stroke-linejoin:miter;stroke-opacity:1"
         d="m 11.893494,121.07309 -1.5368,13.4303 2.138156,2.40542 1.670435,-13.22984 z"
         id="path942" />
    </g>
    <path
       style="fill:#deaa87;fill-opacity:1;stroke:#deaa87;stroke-width:0.304725px;stroke-linecap:butt;stroke-linejoin:miter;stroke-opacity:1"
       d="m 98.576226,134.25115 -0.125669,12.25354 21.864103,-0.0943 -0.12567,-12.5363 z"
       id="path952" />
    <path
       style="fill:#d38d5f;fill-opacity:1;stroke:#d38d5f;stroke-width:0.264583px;stroke-linecap:butt;stroke-linejoin:miter;stroke-opacity:1"
       d="m 98.549497,134.23628 -1.46384,-2.13832 v 12.96257 l 1.34912,1.45998 z"
       id="path954" />
    <path
       style="fill:#e9c6af;fill-opacity:1;stroke:#e9c6af;stroke-width:0.274243px;stroke-linecap:butt;stroke-linejoin:miter;stroke-opacity:1"
       d="m 97.085657,132.09796 h 25.092233 l -2.15538,1.74753 -21.352643,0.37522 z"
       id="path956" />
    <path
       style="fill:#d38d5f;stroke:#d38d5f;stroke-width:0.264583px;stroke-linecap:butt;stroke-linejoin:miter;stroke-opacity:1;fill-opacity:1"
       d="m 120.02251,133.84549 2.15538,-1.74753 0.0974,12.76141 -1.96064,1.55102 z"
       id="path958" />
    <path
       id="path960"
       d="m 101.14422,146.62888 0.0335,-10.41131 3.98559,0.14522 -0.13614,10.23205 z"
       style="fill:#483e37;fill-opacity:1;stroke:#483e37;stroke-width:0.155361px;stroke-linecap:butt;stroke-linejoin:miter;stroke-opacity:1"
       sodipodi:nodetypes="ccccc" />
    <path
       style="fill:#c87137;stroke:#c87137;stroke-width:0.264583px;stroke-linecap:butt;stroke-linejoin:miter;stroke-opacity:1;fill-opacity:1"
       d="m 120.6689,137.89044 1.22842,8.57533 h 0.68508 l -1.55915,-8.43359 z"
       id="path970" />
    <path
       id="path972"
       d="m 121.04726,137.59067 2.0864,8.40787 0.68159,-0.0691 -2.40116,-8.23352 z"
       style="fill:#c87137;fill-opacity:1;stroke:#c87137;stroke-width:0.264583px;stroke-linecap:butt;stroke-linejoin:miter;stroke-opacity:1" />
    <g
       id="g978"
       transform="matrix(1.6039775,0,0,1,-41.375606,44.426069)">
      <path
         id="path974"
         d="m 93.525482,95.155505 0.992187,-1.748141 0.850448,1.913506 -0.992188,1.441035 z"
         style="fill:#d38d5f;fill-opacity:1;stroke:#d38d5f;stroke-width:0.264583px;stroke-linecap:butt;stroke-linejoin:miter;stroke-opacity:1" />
      <path
         id="path976"
         d="m 93.243655,96.484299 1.202714,-2.138156 0.968851,2.271789 -1.403165,2.238383 z"
         style="fill:#d35f5f;fill-opacity:1;stroke:#d35f5f;stroke-width:0.264583px;stroke-linecap:butt;stroke-linejoin:miter;stroke-opacity:1" />
    </g>
    <g
       transform="matrix(1.6039775,0,0,1,-35.554769,44.426069)"
       id="g984">
      <path
         style="fill:#d38d5f;fill-opacity:1;stroke:#d38d5f;stroke-width:0.264583px;stroke-linecap:butt;stroke-linejoin:miter;stroke-opacity:1"
         d="m 93.525482,95.155505 0.992187,-1.748141 0.850448,1.913506 -0.992188,1.441035 z"
         id="path980" />
      <path
         style="fill:#d35f5f;fill-opacity:1;stroke:#d35f5f;stroke-width:0.264583px;stroke-linecap:butt;stroke-linejoin:miter;stroke-opacity:1"
         d="m 93.243655,96.484299 1.202714,-2.138156 0.968851,2.271789 -1.403165,2.238383 z"
         id="path982" />
    </g>
    <path
       id="path988"
       d="m 107.76337,134.8318 2.17336,-3.44904 1.37016,3.44904 z"
       style="fill:#deaa87;fill-opacity:1;stroke:#deaa87;stroke-width:0.264583px;stroke-linecap:butt;stroke-linejoin:miter;stroke-opacity:1" />
    <path
       style="fill:#deaa87;fill-opacity:1;stroke:#deaa87;stroke-width:0.264583px;stroke-linecap:butt;stroke-linejoin:miter;stroke-opacity:1"
       d="m 114.80318,134.59556 2.17336,-3.44903 1.37017,3.44903 z"
       id="path990" />
    <circle
       style="fill:#483e37;fill-opacity:1;stroke:#483e37;stroke-width:0.263;stroke-linecap:butt;stroke-linejoin:bevel;stroke-miterlimit:4;stroke-dasharray:none;stroke-opacity:1;stop-color:#000000"
       id="circle1000"
       cx="110.15618"
       cy="135.93996"
       r="0.3674956" />
    <circle
       r="0.3674956"
       cy="135.93996"
       cx="112.80202"
       id="circle1002"
       style="fill:#483e37;fill-opacity:1;stroke:#483e37;stroke-width:0.263;stroke-linecap:butt;stroke-linejoin:bevel;stroke-miterlimit:4;stroke-dasharray:none;stroke-opacity:1;stop-color:#000000" />
    <circle
       style="fill:#483e37;fill-opacity:1;stroke:#483e37;stroke-width:0.263;stroke-linecap:butt;stroke-linejoin:bevel;stroke-miterlimit:4;stroke-dasharray:none;stroke-opacity:1;stop-color:#000000"
       id="circle1004"
       cx="115.44785"
       cy="135.93996"
       r="0.3674956" />
    <path
       style="fill:#ffd42a;fill-opacity:1;stroke:#ffd42a;stroke-width:0.264583px;stroke-linecap:butt;stroke-linejoin:miter;stroke-opacity:1"
       d="m 55.057521,115.22657 0.09449,10.81957 4.299479,0.14174 -0.472469,-11.67002 z"
       id="path1006" />
    <path
       id="path1008"
       d="m 59.179825,117.73066 -2.137929,3.37816 -2.01981,0.2953 0.04725,3.55533 4.453033,0.0591 -0.2008,-3.63802 -1.122117,-0.29529 1.086681,-2.42141 z"
       style="fill:#7c916f;stroke:#7c916f;stroke-width:0.264583px;stroke-linecap:butt;stroke-linejoin:miter;stroke-opacity:1" />
    <path
       id="path1010"
       d="m 74.063766,119.97638 0.06387,7.31313 2.90609,0.0958 -0.31935,-7.88796 z"
       style="fill:#d35f5f;fill-opacity:1;stroke:#d35f5f;stroke-width:0.178836px;stroke-linecap:butt;stroke-linejoin:miter;stroke-opacity:1" />
    <path
       style="fill:#deaa87;stroke:#deaa87;stroke-width:0.264583px;stroke-linecap:butt;stroke-linejoin:miter;stroke-opacity:1;fill-opacity:1"
       d="m 25.324405,84.950148 1.133928,-21.733631 3.685267,-7.748511 14.268601,-0.188989 4.630208,6.803572 2.929316,22.962052 z"
       id="path1016" />
    <path
       style="fill:#d38d5f;stroke:#d38d5f;stroke-width:0.264583px;stroke-linecap:butt;stroke-linejoin:miter;stroke-opacity:1;fill-opacity:1"
       d="m 44.412201,55.279017 2.55134,-1.889882 5.008184,6.425597 2.55134,21.544642 -2.55134,3.685265 -2.929316,-22.96205 z"
       id="path1018" />
    <path
       style="fill:#d38d5f;stroke:#d38d5f;stroke-width:0.264583px;stroke-linecap:butt;stroke-linejoin:miter;stroke-opacity:1;fill-opacity:1"
       d="m 30.1436,55.468006 -2.36235,-1.984375 -3.401786,7.181546 -1.417411,22.017114 2.362352,2.267857 1.133928,-21.733631 z"
       id="path1020" />
    <path
       style="fill:#deaa87;stroke:#deaa87;stroke-width:0.264583px;stroke-linecap:butt;stroke-linejoin:miter;stroke-opacity:1;fill-opacity:1"
       d="m 30.1436,55.468006 6.945313,-3.590774 7.323288,3.401785 z"
       id="path1022" />
    <path
       style="fill:#d38d5f;stroke:#d38d5f;stroke-width:0.264583px;stroke-linecap:butt;stroke-linejoin:miter;stroke-opacity:1;fill-opacity:1"
       d="M 27.78125,53.483631 37.088913,51.877232 30.1436,55.468006 Z"
       id="path1024" />
    <path
       style="fill:#d38d5f;stroke:#d38d5f;stroke-width:0.264583px;stroke-linecap:butt;stroke-linejoin:miter;stroke-opacity:1;fill-opacity:1"
       d="m 37.088913,51.877232 9.874628,1.511903 -2.55134,1.889882 z"
       id="path1026" />
    <path
       style="fill:#483e37;fill-opacity:1;stroke:#483e37;stroke-width:0.161413px;stroke-linecap:butt;stroke-linejoin:miter;stroke-opacity:1"
       d="m 36.535805,85.059614 v -10.75437 l 3.979481,0.156998 -0.169341,10.627398 z"
       id="path1028"
       sodipodi:nodetypes="ccccc" />
    <g
       transform="matrix(0.77020083,0,0,1.0104721,-36.945514,-17.625107)"
       id="g1044">
      <path
         id="path1040"
         d="m 82.240448,86.411881 0.355714,1.059871 2.073869,-1.660516 1.958581,1.527014 2.428643,-1.593404 2.115271,1.792578 2.232786,-1.892166 2.38947,1.85897 1.37101,-1.825777 -1.396559,1.303246 -2.354379,-1.866108 -2.230503,1.845343 -2.079013,-1.690961 -2.448933,1.653042 -1.911198,-1.560957 -1.966599,1.514011 z"
         style="fill:#d38d5f;stroke:#d38d5f;stroke-width:0.285582px;stroke-linecap:butt;stroke-linejoin:miter;stroke-opacity:1"
         sodipodi:nodetypes="ccccccccccccccccc" />
      <path
         sodipodi:nodetypes="ccccccccccccccccc"
         id="path1042"
         d="m 82.045527,88.566495 0.194922,-2.154612 0.355713,1.059871 2.073869,-1.660516 1.958581,1.527012 2.428643,-1.593404 2.115271,1.792578 2.232786,-1.892166 2.38947,1.85897 1.37101,-1.825775 -1.230021,2.886171 -2.217087,-1.724314 -2.389471,2.091341 -2.154442,-1.991752 -2.467815,1.659793 -2.11527,-1.92536 z"
         style="fill:#00aa88;stroke:#00aa88;stroke-width:0.285582px;stroke-linecap:butt;stroke-linejoin:miter;stroke-opacity:1;fill-opacity:1" />
    </g>
    <g
       id="g1050"
       transform="matrix(0.77020083,0,0,1.0104721,-25.201955,-17.954166)"
       style="fill:#00aa88;fill-opacity:1;stroke:#00aa88;stroke-opacity:1">
      <path
         sodipodi:nodetypes="ccccccccccccccccc"
         style="fill:#00aa88;stroke:#00aa88;stroke-width:0.285582px;stroke-linecap:butt;stroke-linejoin:miter;stroke-opacity:1;fill-opacity:1"
         d="m 81.918393,86.004102 0.677769,1.46765 2.073869,-1.660516 1.958581,1.527014 2.428643,-1.593404 2.115271,1.792578 2.232786,-1.892166 2.38947,1.85897 1.37101,-1.825777 -1.396559,1.303246 -2.354379,-1.866108 -2.230503,1.845343 -2.079013,-1.690961 -2.448933,1.653042 -1.911198,-1.560957 -1.966599,1.514011 z"
         id="path1046" />
      <path
         style="fill:#00aa88;stroke:#00aa88;stroke-width:0.285582px;stroke-linecap:butt;stroke-linejoin:miter;stroke-opacity:1;fill-opacity:1"
         d="m 82.93783,89.036075 -1.188132,-2.798188 0.992155,1.081904 1.928178,-1.508553 1.958581,1.527012 2.428643,-1.593404 2.115271,1.792578 2.232786,-1.892166 2.38947,1.85897 1.37101,-1.825775 -0.509232,2.921239 -2.937876,-1.759382 -2.389471,2.091341 -2.154442,-1.991752 -2.467815,1.659793 -2.11527,-1.92536 z"
         id="path1048"
         sodipodi:nodetypes="ccccccccccccccccc" />
      <path
         style="fill:#00aa88;stroke:#00aa88;stroke-width:0.299915px;stroke-linecap:butt;stroke-linejoin:miter;stroke-opacity:1;fill-opacity:1"
         d="m 80.688373,88.890274 1.113523,-1.162015 1.135935,1.307819 -0.984117,-2.498068 -0.249413,0.06612 z"
         id="path1052" />
    </g>
    <path
       style="fill:#d38d5f;stroke:#d38d5f;stroke-width:0.264583px;stroke-linecap:butt;stroke-linejoin:miter;stroke-opacity:1;fill-opacity:1"
       d="m 38.419995,59.066564 14.833456,-9.888971 2.33861,4.409948 -16.169806,6.34765 z"
       id="path1054" />
    <path
       id="path1056"
       d="M 38.419995,59.066564 50.782896,71.91109 46.857602,74.994726 37.742887,60.206986 Z"
       style="fill:#d38d5f;fill-opacity:1;stroke:#d38d5f;stroke-width:0.264583px;stroke-linecap:butt;stroke-linejoin:miter;stroke-opacity:1" />
    <path
       id="path1058"
       d="M 37.742887,60.206986 21.526868,67.614002 19.9185,62.88855 36.891341,59.190175 Z"
       style="fill:#d38d5f;fill-opacity:1;stroke:#d38d5f;stroke-width:0.264583px;stroke-linecap:butt;stroke-linejoin:miter;stroke-opacity:1" />
    <path
       style="fill:#d38d5f;fill-opacity:1;stroke:#d38d5f;stroke-width:0.264583px;stroke-linecap:butt;stroke-linejoin:miter;stroke-opacity:1"
       d="M 37.742887,60.206986 27.577403,45.561642 31.942707,43.14072 38.59256,59.188608 Z"
       id="path1060" />
  </g>
</svg>
