<svg width="110" height="72" xmlns="http://www.w3.org/2000/svg" xmlns:xlink="http://www.w3.org/1999/xlink" overflow="hidden"><defs><clipPath id="clip0"><rect x="558" y="406" width="110" height="72"/></clipPath></defs><g clip-path="url(#clip0)" transform="translate(-558 -406)"><path d="M667.927 462.874C667.927 471.454 643.319 478.41 612.963 478.41 582.608 478.41 558 471.454 558 462.874 558 454.294 582.608 447.339 612.963 447.339 643.319 447.339 667.927 454.294 667.927 462.874Z" fill="#C6C89C"/><path d="M573.766 470.36 619.728 406.973 650.538 471.117Z" stroke="#7C916F" fill="#7C916F"/><path d="M589.926 448.653 591.073 452.685 597.758 446.368 604.071 452.177 614.027 444.615 621.036 451.133 625.916 445.737 633.618 452.808 638.037 445.863 633.536 450.821 625.946 443.722 620.812 449.124 614.339 443.231 604.161 450.597 598 444.66 591.661 450.419Z" stroke="#5D6C53" fill="#5D6C53"/><path d="M619.728 406.973 656.094 457.985 650.538 471.117Z" stroke="#5D6C53" fill="#5D6C53"/><path d="M619.728 406.973 573.261 455.965 573.766 470.36Z" stroke="#5D6C53" fill="#5D6C53"/><path d="M589.298 456.849 589.926 448.653 591.073 452.685 597.758 446.368 604.071 452.177 611.9 446.116 618.718 452.934 625.916 445.737 633.618 452.808 638.037 445.863 636.396 456.975 626.926 450.283 619.223 458.238 612.279 450.662 604.324 456.975 597.505 449.651Z" stroke="#93ACA7" fill="#93ACA7"/><path d="M607.607 471.073 619.728 406.973 623.517 471.324Z" stroke="#483E37" stroke-width="0.994016" stroke-linejoin="bevel" fill="#483E37"/></g></svg>